<mxfile host="app.diagrams.net" modified="2024-04-01T17:20:05.662Z" agent="Mozilla/5.0 (Macintosh; Intel Mac OS X 10_15_7) AppleWebKit/537.36 (KHTML, like Gecko) Chrome/122.0.0.0 Safari/537.36" etag="fV7KOlsDcnygbc9bnPTP" version="24.2.1" type="github">
  <diagram name="Page-1" id="2a216829-ef6e-dabb-86c1-c78162f3ba2b">
    <mxGraphModel dx="1912" dy="2148" grid="1" gridSize="10" guides="1" tooltips="1" connect="1" arrows="1" fold="1" page="1" pageScale="1" pageWidth="850" pageHeight="1100" background="none" math="0" shadow="0">
      <root>
        <mxCell id="0" />
        <mxCell id="1" parent="0" />
        <mxCell id="DlPZ9QB5WA_B2-Qmfgsv-121" value="" style="rounded=0;whiteSpace=wrap;html=1;" vertex="1" parent="1">
          <mxGeometry x="1450" y="150" width="530" height="800" as="geometry" />
        </mxCell>
        <mxCell id="DlPZ9QB5WA_B2-Qmfgsv-112" value="" style="rounded=0;whiteSpace=wrap;html=1;" vertex="1" parent="1">
          <mxGeometry x="420" y="150" width="210" height="800" as="geometry" />
        </mxCell>
        <mxCell id="DlPZ9QB5WA_B2-Qmfgsv-111" value="" style="rounded=0;whiteSpace=wrap;html=1;" vertex="1" parent="1">
          <mxGeometry x="640" y="150" width="800" height="800" as="geometry" />
        </mxCell>
        <mxCell id="DlPZ9QB5WA_B2-Qmfgsv-110" value="" style="rounded=0;whiteSpace=wrap;html=1;" vertex="1" parent="1">
          <mxGeometry x="10" y="150" width="400" height="800" as="geometry" />
        </mxCell>
        <mxCell id="DlPZ9QB5WA_B2-Qmfgsv-126" style="edgeStyle=orthogonalEdgeStyle;rounded=0;orthogonalLoop=1;jettySize=auto;html=1;entryX=0.5;entryY=0;entryDx=0;entryDy=0;" edge="1" parent="1" source="DlPZ9QB5WA_B2-Qmfgsv-1" target="DlPZ9QB5WA_B2-Qmfgsv-2">
          <mxGeometry relative="1" as="geometry" />
        </mxCell>
        <mxCell id="DlPZ9QB5WA_B2-Qmfgsv-127" style="edgeStyle=orthogonalEdgeStyle;rounded=0;orthogonalLoop=1;jettySize=auto;html=1;" edge="1" parent="1" source="DlPZ9QB5WA_B2-Qmfgsv-1" target="DlPZ9QB5WA_B2-Qmfgsv-3">
          <mxGeometry relative="1" as="geometry" />
        </mxCell>
        <mxCell id="DlPZ9QB5WA_B2-Qmfgsv-1" value="KineticCoach" style="rounded=1;whiteSpace=wrap;html=1;" vertex="1" parent="1">
          <mxGeometry x="530" y="-80" width="120" height="60" as="geometry" />
        </mxCell>
        <mxCell id="DlPZ9QB5WA_B2-Qmfgsv-2" value="Hardware" style="rounded=1;whiteSpace=wrap;html=1;" vertex="1" parent="1">
          <mxGeometry x="140" y="80" width="120" height="60" as="geometry" />
        </mxCell>
        <mxCell id="DlPZ9QB5WA_B2-Qmfgsv-123" style="edgeStyle=orthogonalEdgeStyle;rounded=0;orthogonalLoop=1;jettySize=auto;html=1;entryX=0.5;entryY=0;entryDx=0;entryDy=0;" edge="1" parent="1" source="DlPZ9QB5WA_B2-Qmfgsv-3" target="DlPZ9QB5WA_B2-Qmfgsv-112">
          <mxGeometry relative="1" as="geometry" />
        </mxCell>
        <mxCell id="DlPZ9QB5WA_B2-Qmfgsv-125" style="edgeStyle=orthogonalEdgeStyle;rounded=0;orthogonalLoop=1;jettySize=auto;html=1;exitX=1;exitY=0.5;exitDx=0;exitDy=0;entryX=0.5;entryY=0;entryDx=0;entryDy=0;" edge="1" parent="1" source="DlPZ9QB5WA_B2-Qmfgsv-3" target="DlPZ9QB5WA_B2-Qmfgsv-121">
          <mxGeometry relative="1" as="geometry" />
        </mxCell>
        <mxCell id="DlPZ9QB5WA_B2-Qmfgsv-3" value="Application" style="rounded=1;whiteSpace=wrap;html=1;" vertex="1" parent="1">
          <mxGeometry x="940" y="80" width="120" height="60" as="geometry" />
        </mxCell>
        <mxCell id="DlPZ9QB5WA_B2-Qmfgsv-4" value="Servers" style="rounded=1;whiteSpace=wrap;html=1;strokeColor=#66ff8c;shadow=1;sketch=1;curveFitting=1;jiggle=2;" vertex="1" parent="1">
          <mxGeometry x="50" y="200" width="120" height="60" as="geometry" />
        </mxCell>
        <mxCell id="DlPZ9QB5WA_B2-Qmfgsv-5" value="Master" style="rounded=1;whiteSpace=wrap;html=1;strokeColor=#66ff8c;shadow=1;sketch=1;curveFitting=1;jiggle=2;" vertex="1" parent="1">
          <mxGeometry x="210" y="200" width="120" height="60" as="geometry" />
        </mxCell>
        <mxCell id="DlPZ9QB5WA_B2-Qmfgsv-7" value="Create Device Id" style="rounded=1;whiteSpace=wrap;html=1;strokeColor=#66ff8c;" vertex="1" parent="1">
          <mxGeometry x="50" y="290" width="120" height="60" as="geometry" />
        </mxCell>
        <mxCell id="DlPZ9QB5WA_B2-Qmfgsv-8" value="Specify Data format and frequency" style="rounded=1;whiteSpace=wrap;html=1;strokeColor=#66ff8c;" vertex="1" parent="1">
          <mxGeometry x="50" y="380" width="120" height="60" as="geometry" />
        </mxCell>
        <mxCell id="DlPZ9QB5WA_B2-Qmfgsv-9" value="Serve Data" style="rounded=1;whiteSpace=wrap;html=1;strokeColor=#66ff8c;" vertex="1" parent="1">
          <mxGeometry x="50" y="460" width="120" height="60" as="geometry" />
        </mxCell>
        <mxCell id="DlPZ9QB5WA_B2-Qmfgsv-10" value="Find Servers" style="rounded=1;whiteSpace=wrap;html=1;strokeColor=#66ff8c;" vertex="1" parent="1">
          <mxGeometry x="210" y="290" width="120" height="60" as="geometry" />
        </mxCell>
        <mxCell id="DlPZ9QB5WA_B2-Qmfgsv-11" value="Connect to servers" style="rounded=1;whiteSpace=wrap;html=1;strokeColor=#66ff8c;" vertex="1" parent="1">
          <mxGeometry x="210" y="380" width="120" height="60" as="geometry" />
        </mxCell>
        <mxCell id="DlPZ9QB5WA_B2-Qmfgsv-12" value="Get data from servers" style="rounded=1;whiteSpace=wrap;html=1;strokeColor=#66ff8c;" vertex="1" parent="1">
          <mxGeometry x="210" y="460" width="120" height="60" as="geometry" />
        </mxCell>
        <mxCell id="DlPZ9QB5WA_B2-Qmfgsv-13" value="Apply noise filter" style="rounded=1;whiteSpace=wrap;html=1;strokeColor=#66ff8c;" vertex="1" parent="1">
          <mxGeometry x="210" y="530" width="120" height="60" as="geometry" />
        </mxCell>
        <mxCell id="DlPZ9QB5WA_B2-Qmfgsv-15" value="Stream Data to Phone" style="rounded=1;whiteSpace=wrap;html=1;strokeColor=#66ff8c;" vertex="1" parent="1">
          <mxGeometry x="210" y="600" width="120" height="60" as="geometry" />
        </mxCell>
        <mxCell id="DlPZ9QB5WA_B2-Qmfgsv-16" value="Hardawre connectivity" style="rounded=1;whiteSpace=wrap;html=1;strokeColor=#09FF00;shadow=1;sketch=1;curveFitting=1;jiggle=2;" vertex="1" parent="1">
          <mxGeometry x="470" y="200" width="120" height="60" as="geometry" />
        </mxCell>
        <mxCell id="DlPZ9QB5WA_B2-Qmfgsv-17" value="Find master device" style="rounded=1;whiteSpace=wrap;html=1;strokeColor=#09FF00;" vertex="1" parent="1">
          <mxGeometry x="465" y="290" width="120" height="60" as="geometry" />
        </mxCell>
        <mxCell id="DlPZ9QB5WA_B2-Qmfgsv-18" value="Connect to master" style="rounded=1;whiteSpace=wrap;html=1;strokeColor=#09FF00;" vertex="1" parent="1">
          <mxGeometry x="465" y="370" width="120" height="60" as="geometry" />
        </mxCell>
        <mxCell id="DlPZ9QB5WA_B2-Qmfgsv-19" value="Health check" style="rounded=1;whiteSpace=wrap;html=1;strokeColor=#09FF00;" vertex="1" parent="1">
          <mxGeometry x="465" y="450" width="120" height="60" as="geometry" />
        </mxCell>
        <mxCell id="DlPZ9QB5WA_B2-Qmfgsv-68" style="edgeStyle=orthogonalEdgeStyle;rounded=0;orthogonalLoop=1;jettySize=auto;html=1;entryX=0.5;entryY=0;entryDx=0;entryDy=0;" edge="1" parent="1" source="DlPZ9QB5WA_B2-Qmfgsv-26" target="DlPZ9QB5WA_B2-Qmfgsv-43">
          <mxGeometry relative="1" as="geometry" />
        </mxCell>
        <mxCell id="DlPZ9QB5WA_B2-Qmfgsv-69" style="edgeStyle=orthogonalEdgeStyle;rounded=0;orthogonalLoop=1;jettySize=auto;html=1;" edge="1" parent="1" source="DlPZ9QB5WA_B2-Qmfgsv-26" target="DlPZ9QB5WA_B2-Qmfgsv-33">
          <mxGeometry relative="1" as="geometry" />
        </mxCell>
        <mxCell id="DlPZ9QB5WA_B2-Qmfgsv-26" value="Users" style="rounded=1;whiteSpace=wrap;html=1;shadow=1;sketch=1;curveFitting=1;jiggle=2;" vertex="1" parent="1">
          <mxGeometry x="820" y="190" width="120" height="60" as="geometry" />
        </mxCell>
        <mxCell id="DlPZ9QB5WA_B2-Qmfgsv-119" style="edgeStyle=orthogonalEdgeStyle;rounded=0;orthogonalLoop=1;jettySize=auto;html=1;exitX=1;exitY=0.5;exitDx=0;exitDy=0;entryX=0;entryY=0.5;entryDx=0;entryDy=0;" edge="1" parent="1" source="DlPZ9QB5WA_B2-Qmfgsv-33" target="DlPZ9QB5WA_B2-Qmfgsv-43">
          <mxGeometry relative="1" as="geometry" />
        </mxCell>
        <mxCell id="DlPZ9QB5WA_B2-Qmfgsv-33" value="Create account" style="rounded=1;whiteSpace=wrap;html=1;" vertex="1" parent="1">
          <mxGeometry x="670" y="290" width="120" height="60" as="geometry" />
        </mxCell>
        <mxCell id="DlPZ9QB5WA_B2-Qmfgsv-34" value="Specify current body measurements" style="rounded=1;whiteSpace=wrap;html=1;" vertex="1" parent="1">
          <mxGeometry x="670" y="380" width="120" height="60" as="geometry" />
        </mxCell>
        <mxCell id="DlPZ9QB5WA_B2-Qmfgsv-35" value="Set Goal" style="rounded=1;whiteSpace=wrap;html=1;" vertex="1" parent="1">
          <mxGeometry x="670" y="540" width="120" height="60" as="geometry" />
        </mxCell>
        <mxCell id="DlPZ9QB5WA_B2-Qmfgsv-36" value="Set Workout type (HIIT, Strenght, body weight)" style="rounded=1;whiteSpace=wrap;html=1;" vertex="1" parent="1">
          <mxGeometry x="670" y="620" width="120" height="60" as="geometry" />
        </mxCell>
        <mxCell id="DlPZ9QB5WA_B2-Qmfgsv-37" value="Specify current activity" style="rounded=1;whiteSpace=wrap;html=1;" vertex="1" parent="1">
          <mxGeometry x="670" y="460" width="120" height="60" as="geometry" />
        </mxCell>
        <mxCell id="DlPZ9QB5WA_B2-Qmfgsv-38" value="Present an evaluation workout" style="rounded=1;whiteSpace=wrap;html=1;" vertex="1" parent="1">
          <mxGeometry x="670" y="760" width="120" height="60" as="geometry" />
        </mxCell>
        <mxCell id="DlPZ9QB5WA_B2-Qmfgsv-40" value="Setup hardware" style="rounded=1;whiteSpace=wrap;html=1;strokeColor=#33ff5c;" vertex="1" parent="1">
          <mxGeometry x="1000" y="370" width="120" height="60" as="geometry" />
        </mxCell>
        <mxCell id="DlPZ9QB5WA_B2-Qmfgsv-41" value="Propose next workout weight increase/decrease" style="rounded=1;whiteSpace=wrap;html=1;" vertex="1" parent="1">
          <mxGeometry x="1280" y="610" width="120" height="60" as="geometry" />
        </mxCell>
        <mxCell id="DlPZ9QB5WA_B2-Qmfgsv-118" style="edgeStyle=orthogonalEdgeStyle;rounded=0;orthogonalLoop=1;jettySize=auto;html=1;exitX=1;exitY=0.5;exitDx=0;exitDy=0;entryX=0;entryY=0.5;entryDx=0;entryDy=0;" edge="1" parent="1" source="DlPZ9QB5WA_B2-Qmfgsv-43" target="DlPZ9QB5WA_B2-Qmfgsv-50">
          <mxGeometry relative="1" as="geometry" />
        </mxCell>
        <mxCell id="DlPZ9QB5WA_B2-Qmfgsv-43" value="Select workout" style="rounded=1;whiteSpace=wrap;html=1;strokeColor=#57ff5a;" vertex="1" parent="1">
          <mxGeometry x="820" y="290" width="120" height="60" as="geometry" />
        </mxCell>
        <mxCell id="DlPZ9QB5WA_B2-Qmfgsv-100" value="" style="edgeStyle=orthogonalEdgeStyle;rounded=0;orthogonalLoop=1;jettySize=auto;html=1;" edge="1" parent="1" source="DlPZ9QB5WA_B2-Qmfgsv-44" target="DlPZ9QB5WA_B2-Qmfgsv-99">
          <mxGeometry relative="1" as="geometry" />
        </mxCell>
        <mxCell id="DlPZ9QB5WA_B2-Qmfgsv-44" value="Upcoming workout notification" style="rounded=1;whiteSpace=wrap;html=1;strokeColor=#57ff5a;" vertex="1" parent="1">
          <mxGeometry x="820" y="380" width="120" height="60" as="geometry" />
        </mxCell>
        <mxCell id="DlPZ9QB5WA_B2-Qmfgsv-46" value="Propose workout program" style="rounded=1;whiteSpace=wrap;html=1;" vertex="1" parent="1">
          <mxGeometry x="670" y="690" width="120" height="60" as="geometry" />
        </mxCell>
        <mxCell id="DlPZ9QB5WA_B2-Qmfgsv-116" style="edgeStyle=orthogonalEdgeStyle;rounded=0;orthogonalLoop=1;jettySize=auto;html=1;exitX=1;exitY=0.5;exitDx=0;exitDy=0;entryX=0;entryY=0.5;entryDx=0;entryDy=0;" edge="1" parent="1" source="DlPZ9QB5WA_B2-Qmfgsv-50" target="DlPZ9QB5WA_B2-Qmfgsv-57">
          <mxGeometry relative="1" as="geometry" />
        </mxCell>
        <mxCell id="DlPZ9QB5WA_B2-Qmfgsv-50" value="Start workout" style="rounded=1;whiteSpace=wrap;html=1;strokeColor=#33ff5c;" vertex="1" parent="1">
          <mxGeometry x="1000" y="290" width="120" height="60" as="geometry" />
        </mxCell>
        <mxCell id="DlPZ9QB5WA_B2-Qmfgsv-51" value="Start body monitoring" style="rounded=1;whiteSpace=wrap;html=1;strokeColor=#33ff5c;" vertex="1" parent="1">
          <mxGeometry x="1000" y="440" width="120" height="60" as="geometry" />
        </mxCell>
        <mxCell id="DlPZ9QB5WA_B2-Qmfgsv-52" value="Movement recognition" style="rounded=1;whiteSpace=wrap;html=1;strokeColor=#33ff5c;" vertex="1" parent="1">
          <mxGeometry x="1000" y="530" width="120" height="60" as="geometry" />
        </mxCell>
        <mxCell id="DlPZ9QB5WA_B2-Qmfgsv-53" value="Movement evalution" style="rounded=1;whiteSpace=wrap;html=1;" vertex="1" parent="1">
          <mxGeometry x="1000" y="610" width="120" height="60" as="geometry" />
        </mxCell>
        <mxCell id="DlPZ9QB5WA_B2-Qmfgsv-54" value="Increment repetitions" style="rounded=1;whiteSpace=wrap;html=1;" vertex="1" parent="1">
          <mxGeometry x="1000" y="680" width="120" height="60" as="geometry" />
        </mxCell>
        <mxCell id="DlPZ9QB5WA_B2-Qmfgsv-55" value="Audio feedback" style="rounded=1;whiteSpace=wrap;html=1;" vertex="1" parent="1">
          <mxGeometry x="1000" y="760" width="120" height="60" as="geometry" />
        </mxCell>
        <mxCell id="DlPZ9QB5WA_B2-Qmfgsv-117" style="edgeStyle=orthogonalEdgeStyle;rounded=0;orthogonalLoop=1;jettySize=auto;html=1;exitX=1;exitY=0.5;exitDx=0;exitDy=0;" edge="1" parent="1" source="DlPZ9QB5WA_B2-Qmfgsv-57" target="DlPZ9QB5WA_B2-Qmfgsv-62">
          <mxGeometry relative="1" as="geometry" />
        </mxCell>
        <mxCell id="DlPZ9QB5WA_B2-Qmfgsv-57" value="Workout complete" style="rounded=1;whiteSpace=wrap;html=1;" vertex="1" parent="1">
          <mxGeometry x="1140" y="290" width="120" height="60" as="geometry" />
        </mxCell>
        <mxCell id="DlPZ9QB5WA_B2-Qmfgsv-58" value="Provide report for each exercise" style="rounded=1;whiteSpace=wrap;html=1;" vertex="1" parent="1">
          <mxGeometry x="1140" y="370" width="120" height="60" as="geometry" />
        </mxCell>
        <mxCell id="DlPZ9QB5WA_B2-Qmfgsv-59" value="Provide progression diagram" style="rounded=1;whiteSpace=wrap;html=1;" vertex="1" parent="1">
          <mxGeometry x="1140" y="450" width="120" height="60" as="geometry" />
        </mxCell>
        <mxCell id="DlPZ9QB5WA_B2-Qmfgsv-60" value="Provide progression diagram" style="rounded=1;whiteSpace=wrap;html=1;" vertex="1" parent="1">
          <mxGeometry x="1150" y="530" width="120" height="60" as="geometry" />
        </mxCell>
        <mxCell id="DlPZ9QB5WA_B2-Qmfgsv-62" value="Feedback form" style="rounded=1;whiteSpace=wrap;html=1;" vertex="1" parent="1">
          <mxGeometry x="1280" y="290" width="120" height="60" as="geometry" />
        </mxCell>
        <mxCell id="DlPZ9QB5WA_B2-Qmfgsv-63" value="Discomfort or pain durring an exercise ?" style="rounded=1;whiteSpace=wrap;html=1;fontStyle=0" vertex="1" parent="1">
          <mxGeometry x="1280" y="370" width="120" height="60" as="geometry" />
        </mxCell>
        <mxCell id="DlPZ9QB5WA_B2-Qmfgsv-64" value="Modify exercise or propose new one, if applicable" style="rounded=1;whiteSpace=wrap;html=1;fontStyle=0" vertex="1" parent="1">
          <mxGeometry x="1280" y="450" width="120" height="60" as="geometry" />
        </mxCell>
        <mxCell id="DlPZ9QB5WA_B2-Qmfgsv-65" value="Did you like the intensity?" style="rounded=1;whiteSpace=wrap;html=1;" vertex="1" parent="1">
          <mxGeometry x="1280" y="530" width="120" height="60" as="geometry" />
        </mxCell>
        <mxCell id="DlPZ9QB5WA_B2-Qmfgsv-70" style="edgeStyle=orthogonalEdgeStyle;rounded=0;orthogonalLoop=1;jettySize=auto;html=1;" edge="1" parent="1" source="DlPZ9QB5WA_B2-Qmfgsv-26" target="DlPZ9QB5WA_B2-Qmfgsv-50">
          <mxGeometry relative="1" as="geometry">
            <mxPoint x="1067.3600000000001" y="220.53999999999996" as="targetPoint" />
          </mxGeometry>
        </mxCell>
        <mxCell id="DlPZ9QB5WA_B2-Qmfgsv-73" value="" style="edgeStyle=orthogonalEdgeStyle;rounded=0;orthogonalLoop=1;jettySize=auto;html=1;" edge="1" parent="1" source="DlPZ9QB5WA_B2-Qmfgsv-71" target="DlPZ9QB5WA_B2-Qmfgsv-72">
          <mxGeometry relative="1" as="geometry">
            <Array as="points">
              <mxPoint x="1740" y="260" />
              <mxPoint x="1600" y="260" />
            </Array>
          </mxGeometry>
        </mxCell>
        <mxCell id="DlPZ9QB5WA_B2-Qmfgsv-97" style="edgeStyle=orthogonalEdgeStyle;rounded=0;orthogonalLoop=1;jettySize=auto;html=1;entryX=0.5;entryY=0;entryDx=0;entryDy=0;" edge="1" parent="1" source="DlPZ9QB5WA_B2-Qmfgsv-71" target="DlPZ9QB5WA_B2-Qmfgsv-83">
          <mxGeometry relative="1" as="geometry" />
        </mxCell>
        <mxCell id="DlPZ9QB5WA_B2-Qmfgsv-98" style="edgeStyle=orthogonalEdgeStyle;rounded=0;orthogonalLoop=1;jettySize=auto;html=1;entryX=0.5;entryY=0;entryDx=0;entryDy=0;" edge="1" parent="1" source="DlPZ9QB5WA_B2-Qmfgsv-71" target="DlPZ9QB5WA_B2-Qmfgsv-92">
          <mxGeometry relative="1" as="geometry" />
        </mxCell>
        <mxCell id="DlPZ9QB5WA_B2-Qmfgsv-71" value="Partners" style="rounded=1;whiteSpace=wrap;html=1;shadow=1;sketch=1;curveFitting=1;jiggle=2;" vertex="1" parent="1">
          <mxGeometry x="1680" y="190" width="120" height="60" as="geometry" />
        </mxCell>
        <mxCell id="DlPZ9QB5WA_B2-Qmfgsv-75" value="" style="edgeStyle=orthogonalEdgeStyle;rounded=0;orthogonalLoop=1;jettySize=auto;html=1;" edge="1" parent="1" source="DlPZ9QB5WA_B2-Qmfgsv-72" target="DlPZ9QB5WA_B2-Qmfgsv-74">
          <mxGeometry relative="1" as="geometry" />
        </mxCell>
        <mxCell id="DlPZ9QB5WA_B2-Qmfgsv-72" value="Create workout plan" style="whiteSpace=wrap;html=1;rounded=1;" vertex="1" parent="1">
          <mxGeometry x="1540" y="290" width="120" height="60" as="geometry" />
        </mxCell>
        <mxCell id="DlPZ9QB5WA_B2-Qmfgsv-77" value="" style="edgeStyle=orthogonalEdgeStyle;rounded=0;orthogonalLoop=1;jettySize=auto;html=1;" edge="1" parent="1" source="DlPZ9QB5WA_B2-Qmfgsv-74" target="DlPZ9QB5WA_B2-Qmfgsv-76">
          <mxGeometry relative="1" as="geometry" />
        </mxCell>
        <mxCell id="DlPZ9QB5WA_B2-Qmfgsv-74" value="Specify training type" style="whiteSpace=wrap;html=1;rounded=1;" vertex="1" parent="1">
          <mxGeometry x="1540" y="370" width="120" height="60" as="geometry" />
        </mxCell>
        <mxCell id="DlPZ9QB5WA_B2-Qmfgsv-80" value="" style="edgeStyle=orthogonalEdgeStyle;rounded=0;orthogonalLoop=1;jettySize=auto;html=1;" edge="1" parent="1" source="DlPZ9QB5WA_B2-Qmfgsv-76" target="DlPZ9QB5WA_B2-Qmfgsv-79">
          <mxGeometry relative="1" as="geometry" />
        </mxCell>
        <mxCell id="DlPZ9QB5WA_B2-Qmfgsv-76" value="Select exercises" style="whiteSpace=wrap;html=1;rounded=1;" vertex="1" parent="1">
          <mxGeometry x="1540" y="450" width="120" height="60" as="geometry" />
        </mxCell>
        <mxCell id="DlPZ9QB5WA_B2-Qmfgsv-79" value="Select rest phases" style="whiteSpace=wrap;html=1;rounded=1;" vertex="1" parent="1">
          <mxGeometry x="1540" y="530" width="120" height="60" as="geometry" />
        </mxCell>
        <mxCell id="DlPZ9QB5WA_B2-Qmfgsv-85" value="" style="edgeStyle=orthogonalEdgeStyle;rounded=0;orthogonalLoop=1;jettySize=auto;html=1;" edge="1" parent="1" source="DlPZ9QB5WA_B2-Qmfgsv-83" target="DlPZ9QB5WA_B2-Qmfgsv-84">
          <mxGeometry relative="1" as="geometry" />
        </mxCell>
        <mxCell id="DlPZ9QB5WA_B2-Qmfgsv-83" value="Record workout" style="whiteSpace=wrap;html=1;rounded=1;" vertex="1" parent="1">
          <mxGeometry x="1680" y="290" width="120" height="60" as="geometry" />
        </mxCell>
        <mxCell id="DlPZ9QB5WA_B2-Qmfgsv-91" style="edgeStyle=orthogonalEdgeStyle;rounded=0;orthogonalLoop=1;jettySize=auto;html=1;entryX=0.5;entryY=0;entryDx=0;entryDy=0;" edge="1" parent="1" source="DlPZ9QB5WA_B2-Qmfgsv-84" target="DlPZ9QB5WA_B2-Qmfgsv-86">
          <mxGeometry relative="1" as="geometry" />
        </mxCell>
        <mxCell id="DlPZ9QB5WA_B2-Qmfgsv-84" value="Setup hardware" style="whiteSpace=wrap;html=1;rounded=1;" vertex="1" parent="1">
          <mxGeometry x="1680" y="370" width="120" height="60" as="geometry" />
        </mxCell>
        <mxCell id="DlPZ9QB5WA_B2-Qmfgsv-89" value="" style="edgeStyle=orthogonalEdgeStyle;rounded=0;orthogonalLoop=1;jettySize=auto;html=1;" edge="1" parent="1" source="DlPZ9QB5WA_B2-Qmfgsv-86" target="DlPZ9QB5WA_B2-Qmfgsv-88">
          <mxGeometry relative="1" as="geometry" />
        </mxCell>
        <mxCell id="DlPZ9QB5WA_B2-Qmfgsv-86" value="Record movements" style="whiteSpace=wrap;html=1;rounded=1;" vertex="1" parent="1">
          <mxGeometry x="1680" y="450" width="120" height="60" as="geometry" />
        </mxCell>
        <mxCell id="DlPZ9QB5WA_B2-Qmfgsv-88" value="Movement model creation" style="whiteSpace=wrap;html=1;rounded=1;" vertex="1" parent="1">
          <mxGeometry x="1680" y="530" width="120" height="60" as="geometry" />
        </mxCell>
        <mxCell id="DlPZ9QB5WA_B2-Qmfgsv-92" value="Record audio" style="whiteSpace=wrap;html=1;rounded=1;" vertex="1" parent="1">
          <mxGeometry x="1820" y="290" width="120" height="60" as="geometry" />
        </mxCell>
        <mxCell id="DlPZ9QB5WA_B2-Qmfgsv-93" value="Get a list of events" style="whiteSpace=wrap;html=1;rounded=1;" vertex="1" parent="1">
          <mxGeometry x="1820" y="370" width="120" height="60" as="geometry" />
        </mxCell>
        <mxCell id="DlPZ9QB5WA_B2-Qmfgsv-94" value="Record audio for each event" style="whiteSpace=wrap;html=1;rounded=1;" vertex="1" parent="1">
          <mxGeometry x="1820" y="450" width="120" height="60" as="geometry" />
        </mxCell>
        <mxCell id="DlPZ9QB5WA_B2-Qmfgsv-95" value="Send for approval" style="whiteSpace=wrap;html=1;rounded=1;" vertex="1" parent="1">
          <mxGeometry x="1820" y="530" width="120" height="60" as="geometry" />
        </mxCell>
        <mxCell id="DlPZ9QB5WA_B2-Qmfgsv-96" value="Send for approval" style="whiteSpace=wrap;html=1;rounded=1;" vertex="1" parent="1">
          <mxGeometry x="1680" y="610" width="120" height="60" as="geometry" />
        </mxCell>
        <mxCell id="DlPZ9QB5WA_B2-Qmfgsv-99" value="Provide video explanation for each excercise" style="whiteSpace=wrap;html=1;rounded=1;strokeColor=#57ff5a;" vertex="1" parent="1">
          <mxGeometry x="820" y="460" width="120" height="60" as="geometry" />
        </mxCell>
        <mxCell id="DlPZ9QB5WA_B2-Qmfgsv-114" value="" style="shape=hexagon;perimeter=hexagonPerimeter2;whiteSpace=wrap;html=1;fixedSize=1;" vertex="1" parent="1">
          <mxGeometry x="890" y="580" width="120" height="80" as="geometry" />
        </mxCell>
        <mxCell id="DlPZ9QB5WA_B2-Qmfgsv-124" style="edgeStyle=orthogonalEdgeStyle;rounded=0;orthogonalLoop=1;jettySize=auto;html=1;entryX=0.448;entryY=-0.002;entryDx=0;entryDy=0;entryPerimeter=0;" edge="1" parent="1" source="DlPZ9QB5WA_B2-Qmfgsv-3" target="DlPZ9QB5WA_B2-Qmfgsv-111">
          <mxGeometry relative="1" as="geometry" />
        </mxCell>
      </root>
    </mxGraphModel>
  </diagram>
</mxfile>
